<mxfile host="app.diagrams.net" modified="2021-08-12T07:31:40.690Z" agent="5.0 (Windows NT 10.0; Win64; x64) AppleWebKit/537.36 (KHTML, like Gecko) Chrome/90.0.4430.93 Safari/537.36" etag="keRJZVQtwCiurPqg3sFQ" version="14.9.5" type="github">
  <diagram id="VMXx3a-sQ7ojjbZRSHTF" name="Page-1">
    <mxGraphModel dx="1328" dy="746" grid="1" gridSize="10" guides="1" tooltips="1" connect="1" arrows="1" fold="1" page="1" pageScale="1" pageWidth="827" pageHeight="1169" math="0" shadow="0">
      <root>
        <mxCell id="0" />
        <mxCell id="1" parent="0" />
        <mxCell id="wbbCdPlYJ9qQvZZ2qLUH-3" value="&lt;font style=&quot;font-size: 14px&quot;&gt;Activity#&lt;span style=&quot;text-align: justify&quot;&gt;installSplashScreen&lt;/span&gt;&lt;/font&gt;" style="rounded=1;whiteSpace=wrap;html=1;fillColor=#f5f5f5;strokeColor=#666666;fontColor=#333333;" vertex="1" parent="1">
          <mxGeometry x="121" y="90" width="270" height="60" as="geometry" />
        </mxCell>
        <mxCell id="wbbCdPlYJ9qQvZZ2qLUH-4" value="SplashScreen#install" style="rounded=1;whiteSpace=wrap;html=1;fillColor=#dae8fc;strokeColor=#6c8ebf;" vertex="1" parent="1">
          <mxGeometry x="163.5" y="200" width="185" height="60" as="geometry" />
        </mxCell>
        <mxCell id="wbbCdPlYJ9qQvZZ2qLUH-6" value="Impl31#install" style="rounded=1;whiteSpace=wrap;html=1;fillColor=#dae8fc;strokeColor=#6c8ebf;" vertex="1" parent="1">
          <mxGeometry x="22.5" y="430" width="130" height="60" as="geometry" />
        </mxCell>
        <mxCell id="wbbCdPlYJ9qQvZZ2qLUH-13" value="Android 12?" style="rhombus;whiteSpace=wrap;html=1;fillColor=#f8cecc;strokeColor=#b85450;" vertex="1" parent="1">
          <mxGeometry x="200" y="310" width="110" height="80" as="geometry" />
        </mxCell>
        <mxCell id="wbbCdPlYJ9qQvZZ2qLUH-17" value="" style="endArrow=classic;html=1;exitX=0.5;exitY=1;exitDx=0;exitDy=0;" edge="1" parent="1" source="wbbCdPlYJ9qQvZZ2qLUH-3" target="wbbCdPlYJ9qQvZZ2qLUH-4">
          <mxGeometry width="50" height="50" relative="1" as="geometry">
            <mxPoint x="516" y="320" as="sourcePoint" />
            <mxPoint x="566" y="270" as="targetPoint" />
          </mxGeometry>
        </mxCell>
        <mxCell id="wbbCdPlYJ9qQvZZ2qLUH-18" value="" style="endArrow=classic;html=1;exitX=0.5;exitY=1;exitDx=0;exitDy=0;" edge="1" parent="1">
          <mxGeometry width="50" height="50" relative="1" as="geometry">
            <mxPoint x="254.57999999999993" y="260" as="sourcePoint" />
            <mxPoint x="254.57999999999993" y="310" as="targetPoint" />
          </mxGeometry>
        </mxCell>
        <mxCell id="wbbCdPlYJ9qQvZZ2qLUH-20" value="Y" style="text;html=1;strokeColor=none;fillColor=none;align=center;verticalAlign=middle;whiteSpace=wrap;rounded=0;" vertex="1" parent="1">
          <mxGeometry x="152.5" y="320" width="40" height="20" as="geometry" />
        </mxCell>
        <mxCell id="wbbCdPlYJ9qQvZZ2qLUH-22" value="" style="endArrow=classic;html=1;entryX=0;entryY=0.5;entryDx=0;entryDy=0;" edge="1" parent="1" target="wbbCdPlYJ9qQvZZ2qLUH-25">
          <mxGeometry width="50" height="50" relative="1" as="geometry">
            <mxPoint x="310" y="350" as="sourcePoint" />
            <mxPoint x="340" y="349.94" as="targetPoint" />
            <Array as="points" />
          </mxGeometry>
        </mxCell>
        <mxCell id="wbbCdPlYJ9qQvZZ2qLUH-23" value="N" style="text;html=1;strokeColor=none;fillColor=none;align=center;verticalAlign=middle;whiteSpace=wrap;rounded=0;" vertex="1" parent="1">
          <mxGeometry x="308.5" y="320" width="40" height="20" as="geometry" />
        </mxCell>
        <mxCell id="wbbCdPlYJ9qQvZZ2qLUH-25" value="Impl#install" style="rounded=1;whiteSpace=wrap;html=1;fillColor=#dae8fc;strokeColor=#6c8ebf;" vertex="1" parent="1">
          <mxGeometry x="348.5" y="320" width="130" height="60" as="geometry" />
        </mxCell>
        <mxCell id="wbbCdPlYJ9qQvZZ2qLUH-26" value="setPostSplashScreenTheme" style="rounded=1;whiteSpace=wrap;html=1;fillColor=#dae8fc;strokeColor=#6c8ebf;" vertex="1" parent="1">
          <mxGeometry x="163.5" y="540" width="185" height="60" as="geometry" />
        </mxCell>
        <mxCell id="wbbCdPlYJ9qQvZZ2qLUH-27" value="Activity#setTheme" style="rounded=1;whiteSpace=wrap;html=1;fillColor=#f5f5f5;strokeColor=#666666;fontColor=#333333;" vertex="1" parent="1">
          <mxGeometry x="163.5" y="650" width="185" height="60" as="geometry" />
        </mxCell>
        <mxCell id="wbbCdPlYJ9qQvZZ2qLUH-28" value="Resolve Background &amp;amp; Icon" style="rounded=1;whiteSpace=wrap;html=1;fillColor=#f5f5f5;strokeColor=#666666;fontColor=#333333;" vertex="1" parent="1">
          <mxGeometry x="299" y="430" width="230" height="60" as="geometry" />
        </mxCell>
        <mxCell id="wbbCdPlYJ9qQvZZ2qLUH-29" value="" style="endArrow=classic;html=1;exitX=0;exitY=0.5;exitDx=0;exitDy=0;entryX=0.5;entryY=0;entryDx=0;entryDy=0;" edge="1" parent="1" source="wbbCdPlYJ9qQvZZ2qLUH-13" target="wbbCdPlYJ9qQvZZ2qLUH-6">
          <mxGeometry width="50" height="50" relative="1" as="geometry">
            <mxPoint x="510" y="325" as="sourcePoint" />
            <mxPoint x="87" y="398" as="targetPoint" />
            <Array as="points">
              <mxPoint x="87" y="350" />
            </Array>
          </mxGeometry>
        </mxCell>
        <mxCell id="wbbCdPlYJ9qQvZZ2qLUH-30" value="" style="endArrow=classic;html=1;exitX=0.5;exitY=1;exitDx=0;exitDy=0;" edge="1" parent="1">
          <mxGeometry width="50" height="50" relative="1" as="geometry">
            <mxPoint x="412.9999999999999" y="380" as="sourcePoint" />
            <mxPoint x="412.9999999999999" y="430" as="targetPoint" />
          </mxGeometry>
        </mxCell>
        <mxCell id="wbbCdPlYJ9qQvZZ2qLUH-33" value="" style="endArrow=classic;html=1;exitX=0.5;exitY=1;exitDx=0;exitDy=0;entryX=0;entryY=0.5;entryDx=0;entryDy=0;" edge="1" parent="1" source="wbbCdPlYJ9qQvZZ2qLUH-6" target="wbbCdPlYJ9qQvZZ2qLUH-26">
          <mxGeometry width="50" height="50" relative="1" as="geometry">
            <mxPoint x="200" y="359.9999999999999" as="sourcePoint" />
            <mxPoint x="240" y="560" as="targetPoint" />
            <Array as="points">
              <mxPoint x="88" y="570" />
            </Array>
          </mxGeometry>
        </mxCell>
        <mxCell id="wbbCdPlYJ9qQvZZ2qLUH-34" value="" style="endArrow=classic;html=1;exitX=0.5;exitY=1;exitDx=0;exitDy=0;entryX=1;entryY=0.5;entryDx=0;entryDy=0;" edge="1" parent="1" target="wbbCdPlYJ9qQvZZ2qLUH-26">
          <mxGeometry width="50" height="50" relative="1" as="geometry">
            <mxPoint x="414" y="490" as="sourcePoint" />
            <mxPoint x="466.5" y="585" as="targetPoint" />
            <Array as="points">
              <mxPoint x="415" y="570" />
            </Array>
          </mxGeometry>
        </mxCell>
        <mxCell id="wbbCdPlYJ9qQvZZ2qLUH-35" value="" style="endArrow=classic;html=1;exitX=0.5;exitY=1;exitDx=0;exitDy=0;" edge="1" parent="1">
          <mxGeometry width="50" height="50" relative="1" as="geometry">
            <mxPoint x="255.58" y="599.9999999999999" as="sourcePoint" />
            <mxPoint x="255.58" y="650" as="targetPoint" />
          </mxGeometry>
        </mxCell>
      </root>
    </mxGraphModel>
  </diagram>
</mxfile>
